<mxfile host="app.diagrams.net" agent="Mozilla/5.0 (Macintosh; Intel Mac OS X 10_15_7) AppleWebKit/605.1.15 (KHTML, like Gecko) Version/18.3.1 Safari/605.1.15" version="26.2.3">
  <diagram name="Page-1" id="lgPYl8--zm11s9oCg7Er">
    <mxGraphModel dx="1037" dy="591" grid="1" gridSize="10" guides="1" tooltips="1" connect="1" arrows="1" fold="1" page="1" pageScale="1" pageWidth="850" pageHeight="1100" math="0" shadow="0">
      <root>
        <mxCell id="0" />
        <mxCell id="1" parent="0" />
        <mxCell id="CiEu0AacSMIFSreFc6v4-81" style="edgeStyle=orthogonalEdgeStyle;rounded=0;orthogonalLoop=1;jettySize=auto;html=1;entryX=0;entryY=0.5;entryDx=0;entryDy=0;" parent="1" source="CiEu0AacSMIFSreFc6v4-78" target="CiEu0AacSMIFSreFc6v4-79" edge="1">
          <mxGeometry relative="1" as="geometry" />
        </mxCell>
        <mxCell id="CiEu0AacSMIFSreFc6v4-78" value="Categorizar Cliente" style="rounded=1;whiteSpace=wrap;html=1;" parent="1" vertex="1">
          <mxGeometry x="10" y="30" width="120" height="60" as="geometry" />
        </mxCell>
        <mxCell id="CiEu0AacSMIFSreFc6v4-101" style="edgeStyle=orthogonalEdgeStyle;rounded=0;orthogonalLoop=1;jettySize=auto;html=1;entryX=0;entryY=0.5;entryDx=0;entryDy=0;" parent="1" source="CiEu0AacSMIFSreFc6v4-79" target="CiEu0AacSMIFSreFc6v4-104" edge="1">
          <mxGeometry relative="1" as="geometry">
            <mxPoint x="370" y="60" as="targetPoint" />
          </mxGeometry>
        </mxCell>
        <mxCell id="CiEu0AacSMIFSreFc6v4-79" value="Categorizar nivel de riesgo" style="rounded=1;whiteSpace=wrap;html=1;" parent="1" vertex="1">
          <mxGeometry x="210" y="30" width="120" height="60" as="geometry" />
        </mxCell>
        <mxCell id="CiEu0AacSMIFSreFc6v4-107" style="edgeStyle=orthogonalEdgeStyle;rounded=0;orthogonalLoop=1;jettySize=auto;html=1;entryX=0.5;entryY=0;entryDx=0;entryDy=0;" parent="1" source="CiEu0AacSMIFSreFc6v4-80" target="CiEu0AacSMIFSreFc6v4-84" edge="1">
          <mxGeometry relative="1" as="geometry" />
        </mxCell>
        <mxCell id="CiEu0AacSMIFSreFc6v4-80" value="Seleccionar equipos para completar el objetivo" style="rounded=1;whiteSpace=wrap;html=1;" parent="1" vertex="1">
          <mxGeometry x="780" y="30" width="120" height="60" as="geometry" />
        </mxCell>
        <mxCell id="CiEu0AacSMIFSreFc6v4-87" style="edgeStyle=orthogonalEdgeStyle;rounded=0;orthogonalLoop=1;jettySize=auto;html=1;entryX=0.5;entryY=0;entryDx=0;entryDy=0;" parent="1" source="CiEu0AacSMIFSreFc6v4-84" target="CiEu0AacSMIFSreFc6v4-86" edge="1">
          <mxGeometry relative="1" as="geometry" />
        </mxCell>
        <mxCell id="CiEu0AacSMIFSreFc6v4-84" value="Consultar si tienen el agente instalado" style="rounded=1;whiteSpace=wrap;html=1;" parent="1" vertex="1">
          <mxGeometry x="780" y="130" width="120" height="60" as="geometry" />
        </mxCell>
        <mxCell id="CiEu0AacSMIFSreFc6v4-89" style="edgeStyle=orthogonalEdgeStyle;rounded=0;orthogonalLoop=1;jettySize=auto;html=1;" parent="1" source="CiEu0AacSMIFSreFc6v4-86" target="CiEu0AacSMIFSreFc6v4-88" edge="1">
          <mxGeometry relative="1" as="geometry" />
        </mxCell>
        <mxCell id="CiEu0AacSMIFSreFc6v4-90" value="[NO esta instalado]" style="edgeLabel;html=1;align=center;verticalAlign=middle;resizable=0;points=[];" parent="CiEu0AacSMIFSreFc6v4-89" vertex="1" connectable="0">
          <mxGeometry x="0.0074" relative="1" as="geometry">
            <mxPoint x="25" as="offset" />
          </mxGeometry>
        </mxCell>
        <mxCell id="CiEu0AacSMIFSreFc6v4-86" value="" style="rhombus;whiteSpace=wrap;html=1;" parent="1" vertex="1">
          <mxGeometry x="800" y="220" width="80" height="80" as="geometry" />
        </mxCell>
        <mxCell id="CiEu0AacSMIFSreFc6v4-122" style="edgeStyle=orthogonalEdgeStyle;rounded=0;orthogonalLoop=1;jettySize=auto;html=1;entryX=0.5;entryY=0;entryDx=0;entryDy=0;" parent="1" source="CiEu0AacSMIFSreFc6v4-88" target="CiEu0AacSMIFSreFc6v4-121" edge="1">
          <mxGeometry relative="1" as="geometry" />
        </mxCell>
        <mxCell id="CiEu0AacSMIFSreFc6v4-88" value="Instalarlo" style="rounded=1;whiteSpace=wrap;html=1;" parent="1" vertex="1">
          <mxGeometry x="650" y="320" width="120" height="60" as="geometry" />
        </mxCell>
        <mxCell id="CiEu0AacSMIFSreFc6v4-94" style="edgeStyle=orthogonalEdgeStyle;rounded=0;orthogonalLoop=1;jettySize=auto;html=1;exitX=0.5;exitY=1;exitDx=0;exitDy=0;" parent="1" source="CiEu0AacSMIFSreFc6v4-86" edge="1">
          <mxGeometry relative="1" as="geometry">
            <mxPoint x="840" y="520" as="targetPoint" />
            <mxPoint x="840.0526315789475" y="560.0000000000002" as="sourcePoint" />
            <Array as="points">
              <mxPoint x="840" y="440" />
              <mxPoint x="840" y="440" />
            </Array>
          </mxGeometry>
        </mxCell>
        <mxCell id="CiEu0AacSMIFSreFc6v4-93" value="" style="endArrow=none;html=1;rounded=0;strokeWidth=3;" parent="1" edge="1">
          <mxGeometry width="50" height="50" relative="1" as="geometry">
            <mxPoint x="650" y="520" as="sourcePoint" />
            <mxPoint x="880" y="520" as="targetPoint" />
          </mxGeometry>
        </mxCell>
        <mxCell id="CiEu0AacSMIFSreFc6v4-96" value="" style="endArrow=classic;html=1;rounded=0;entryX=0.5;entryY=0;entryDx=0;entryDy=0;" parent="1" target="CiEu0AacSMIFSreFc6v4-98" edge="1">
          <mxGeometry width="50" height="50" relative="1" as="geometry">
            <mxPoint x="760" y="520" as="sourcePoint" />
            <mxPoint x="759.47" y="589.9999999999998" as="targetPoint" />
          </mxGeometry>
        </mxCell>
        <mxCell id="CiEu0AacSMIFSreFc6v4-109" style="edgeStyle=orthogonalEdgeStyle;rounded=0;orthogonalLoop=1;jettySize=auto;html=1;entryX=0.5;entryY=0;entryDx=0;entryDy=0;" parent="1" source="CiEu0AacSMIFSreFc6v4-98" target="CiEu0AacSMIFSreFc6v4-108" edge="1">
          <mxGeometry relative="1" as="geometry" />
        </mxCell>
        <mxCell id="CiEu0AacSMIFSreFc6v4-98" value="Consultar si ya existe un Adversary Profile para el objetivo seleccionado" style="rounded=1;whiteSpace=wrap;html=1;" parent="1" vertex="1">
          <mxGeometry x="700" y="560" width="120" height="60" as="geometry" />
        </mxCell>
        <mxCell id="qpwWasE5SDaYqDNhOvsd-14" value="" style="edgeStyle=orthogonalEdgeStyle;rounded=0;orthogonalLoop=1;jettySize=auto;html=1;entryX=0;entryY=0.5;entryDx=0;entryDy=0;" parent="1" source="CiEu0AacSMIFSreFc6v4-104" target="qpwWasE5SDaYqDNhOvsd-3" edge="1">
          <mxGeometry relative="1" as="geometry">
            <mxPoint x="480" y="60" as="targetPoint" />
          </mxGeometry>
        </mxCell>
        <mxCell id="CiEu0AacSMIFSreFc6v4-104" value="Establecer objetivos de la auditoria" style="rounded=1;whiteSpace=wrap;html=1;" parent="1" vertex="1">
          <mxGeometry x="410" y="30" width="120" height="60" as="geometry" />
        </mxCell>
        <mxCell id="CiEu0AacSMIFSreFc6v4-112" style="edgeStyle=orthogonalEdgeStyle;rounded=0;orthogonalLoop=1;jettySize=auto;html=1;entryX=0.5;entryY=0;entryDx=0;entryDy=0;" parent="1" source="CiEu0AacSMIFSreFc6v4-108" target="CiEu0AacSMIFSreFc6v4-111" edge="1">
          <mxGeometry relative="1" as="geometry" />
        </mxCell>
        <mxCell id="CiEu0AacSMIFSreFc6v4-113" value="[NO existe]" style="edgeLabel;html=1;align=center;verticalAlign=middle;resizable=0;points=[];" parent="CiEu0AacSMIFSreFc6v4-112" vertex="1" connectable="0">
          <mxGeometry x="-0.0509" y="2" relative="1" as="geometry">
            <mxPoint as="offset" />
          </mxGeometry>
        </mxCell>
        <mxCell id="CiEu0AacSMIFSreFc6v4-114" style="edgeStyle=orthogonalEdgeStyle;rounded=0;orthogonalLoop=1;jettySize=auto;html=1;" parent="1" source="CiEu0AacSMIFSreFc6v4-108" edge="1">
          <mxGeometry relative="1" as="geometry">
            <mxPoint x="450" y="700" as="targetPoint" />
            <Array as="points">
              <mxPoint x="685" y="700" />
              <mxPoint x="685" y="700" />
            </Array>
          </mxGeometry>
        </mxCell>
        <mxCell id="CiEu0AacSMIFSreFc6v4-108" value="" style="rhombus;whiteSpace=wrap;html=1;" parent="1" vertex="1">
          <mxGeometry x="720" y="660" width="80" height="80" as="geometry" />
        </mxCell>
        <mxCell id="CiEu0AacSMIFSreFc6v4-117" style="edgeStyle=orthogonalEdgeStyle;rounded=0;orthogonalLoop=1;jettySize=auto;html=1;entryX=1;entryY=0.5;entryDx=0;entryDy=0;" parent="1" source="CiEu0AacSMIFSreFc6v4-111" target="CiEu0AacSMIFSreFc6v4-116" edge="1">
          <mxGeometry relative="1" as="geometry" />
        </mxCell>
        <mxCell id="CiEu0AacSMIFSreFc6v4-111" value="Seleccionar abilities" style="rounded=1;whiteSpace=wrap;html=1;" parent="1" vertex="1">
          <mxGeometry x="700" y="800" width="120" height="60" as="geometry" />
        </mxCell>
        <mxCell id="CiEu0AacSMIFSreFc6v4-119" style="edgeStyle=orthogonalEdgeStyle;rounded=0;orthogonalLoop=1;jettySize=auto;html=1;" parent="1" source="CiEu0AacSMIFSreFc6v4-116" edge="1">
          <mxGeometry relative="1" as="geometry">
            <mxPoint x="450" y="830" as="targetPoint" />
          </mxGeometry>
        </mxCell>
        <mxCell id="CiEu0AacSMIFSreFc6v4-116" value="Crear el Adversary Profile" style="rounded=1;whiteSpace=wrap;html=1;" parent="1" vertex="1">
          <mxGeometry x="530" y="800" width="120" height="60" as="geometry" />
        </mxCell>
        <mxCell id="CiEu0AacSMIFSreFc6v4-118" value="" style="endArrow=none;html=1;rounded=0;strokeWidth=3;" parent="1" edge="1">
          <mxGeometry width="50" height="50" relative="1" as="geometry">
            <mxPoint x="450" y="870" as="sourcePoint" />
            <mxPoint x="450" y="670" as="targetPoint" />
          </mxGeometry>
        </mxCell>
        <mxCell id="CiEu0AacSMIFSreFc6v4-126" style="edgeStyle=orthogonalEdgeStyle;rounded=0;orthogonalLoop=1;jettySize=auto;html=1;entryX=1;entryY=0.5;entryDx=0;entryDy=0;" parent="1" target="CiEu0AacSMIFSreFc6v4-125" edge="1">
          <mxGeometry relative="1" as="geometry">
            <mxPoint x="450" y="770" as="sourcePoint" />
          </mxGeometry>
        </mxCell>
        <mxCell id="CiEu0AacSMIFSreFc6v4-123" style="edgeStyle=orthogonalEdgeStyle;rounded=0;orthogonalLoop=1;jettySize=auto;html=1;" parent="1" source="CiEu0AacSMIFSreFc6v4-121" edge="1">
          <mxGeometry relative="1" as="geometry">
            <mxPoint x="710" y="520.0000000000002" as="targetPoint" />
          </mxGeometry>
        </mxCell>
        <mxCell id="CiEu0AacSMIFSreFc6v4-121" value="Crear el grupo correspondiente de agentes" style="rounded=1;whiteSpace=wrap;html=1;" parent="1" vertex="1">
          <mxGeometry x="650" y="410" width="120" height="60" as="geometry" />
        </mxCell>
        <mxCell id="CiEu0AacSMIFSreFc6v4-128" style="edgeStyle=orthogonalEdgeStyle;rounded=0;orthogonalLoop=1;jettySize=auto;html=1;entryX=0.5;entryY=1;entryDx=0;entryDy=0;" parent="1" source="CiEu0AacSMIFSreFc6v4-125" target="CiEu0AacSMIFSreFc6v4-127" edge="1">
          <mxGeometry relative="1" as="geometry" />
        </mxCell>
        <mxCell id="CiEu0AacSMIFSreFc6v4-125" value="Planificar la frecuencia de ejecución de los Adversary Profile" style="rounded=1;whiteSpace=wrap;html=1;" parent="1" vertex="1">
          <mxGeometry x="240" y="740" width="120" height="60" as="geometry" />
        </mxCell>
        <mxCell id="qpwWasE5SDaYqDNhOvsd-16" style="edgeStyle=orthogonalEdgeStyle;rounded=0;orthogonalLoop=1;jettySize=auto;html=1;entryX=0;entryY=1;entryDx=0;entryDy=0;" parent="1" source="CiEu0AacSMIFSreFc6v4-127" target="qpwWasE5SDaYqDNhOvsd-3" edge="1">
          <mxGeometry relative="1" as="geometry">
            <Array as="points">
              <mxPoint x="300" y="220" />
              <mxPoint x="560" y="220" />
              <mxPoint x="560" y="80" />
            </Array>
          </mxGeometry>
        </mxCell>
        <mxCell id="CiEu0AacSMIFSreFc6v4-127" value="Configurar el Scheduler para la ejecución de los Adversary Profile" style="rounded=1;whiteSpace=wrap;html=1;" parent="1" vertex="1">
          <mxGeometry x="240" y="620" width="120" height="60" as="geometry" />
        </mxCell>
        <mxCell id="CiEu0AacSMIFSreFc6v4-130" style="edgeStyle=orthogonalEdgeStyle;rounded=0;orthogonalLoop=1;jettySize=auto;html=1;" parent="1" source="CiEu0AacSMIFSreFc6v4-129" target="CiEu0AacSMIFSreFc6v4-78" edge="1">
          <mxGeometry relative="1" as="geometry" />
        </mxCell>
        <mxCell id="CiEu0AacSMIFSreFc6v4-129" value="" style="ellipse;whiteSpace=wrap;html=1;aspect=fixed;fillColor=#000000;" parent="1" vertex="1">
          <mxGeometry x="55" y="125" width="30" height="30" as="geometry" />
        </mxCell>
        <mxCell id="qpwWasE5SDaYqDNhOvsd-1" value="" style="group" parent="1" vertex="1" connectable="0">
          <mxGeometry x="657.5" y="170" width="45" height="45" as="geometry" />
        </mxCell>
        <mxCell id="CiEu0AacSMIFSreFc6v4-132" value="" style="ellipse;whiteSpace=wrap;html=1;aspect=fixed;" parent="qpwWasE5SDaYqDNhOvsd-1" vertex="1">
          <mxGeometry width="45" height="45" as="geometry" />
        </mxCell>
        <mxCell id="CiEu0AacSMIFSreFc6v4-131" value="" style="ellipse;whiteSpace=wrap;html=1;aspect=fixed;fillColor=#000000;" parent="qpwWasE5SDaYqDNhOvsd-1" vertex="1">
          <mxGeometry x="7.5" y="7.5" width="30" height="30" as="geometry" />
        </mxCell>
        <mxCell id="qpwWasE5SDaYqDNhOvsd-5" value="[NO]" style="edgeStyle=orthogonalEdgeStyle;rounded=0;orthogonalLoop=1;jettySize=auto;html=1;entryX=0;entryY=0.5;entryDx=0;entryDy=0;" parent="1" source="qpwWasE5SDaYqDNhOvsd-3" target="CiEu0AacSMIFSreFc6v4-80" edge="1">
          <mxGeometry relative="1" as="geometry">
            <mxPoint x="770" y="60" as="targetPoint" />
            <Array as="points">
              <mxPoint x="750" y="60" />
              <mxPoint x="750" y="60" />
            </Array>
          </mxGeometry>
        </mxCell>
        <mxCell id="qpwWasE5SDaYqDNhOvsd-6" style="edgeStyle=orthogonalEdgeStyle;rounded=0;orthogonalLoop=1;jettySize=auto;html=1;exitX=0.5;exitY=1;exitDx=0;exitDy=0;entryX=0.5;entryY=0;entryDx=0;entryDy=0;" parent="1" source="qpwWasE5SDaYqDNhOvsd-3" target="CiEu0AacSMIFSreFc6v4-132" edge="1">
          <mxGeometry relative="1" as="geometry">
            <Array as="points">
              <mxPoint x="680" y="110" />
              <mxPoint x="680" y="110" />
            </Array>
          </mxGeometry>
        </mxCell>
        <mxCell id="qpwWasE5SDaYqDNhOvsd-3" value="¿Todos objetivos procesados?&lt;div&gt;&lt;br&gt;&lt;/div&gt;" style="rhombus;whiteSpace=wrap;html=1;" parent="1" vertex="1">
          <mxGeometry x="640" y="20" width="80" height="80" as="geometry" />
        </mxCell>
      </root>
    </mxGraphModel>
  </diagram>
</mxfile>
